<svg width="40" height="40" viewBox="0 0 40 40" fill="none" xmlns="http://www.w3.org/2000/svg">
<path d="M32.3159 13.9454H27.0013C26.7467 13.9454 26.5025 13.8442 26.3224 13.6642C26.1424 13.4841 26.0413 13.24 26.0413 12.9853V7.73466C26.0413 7.48005 26.1424 7.23587 26.3224 7.05584C26.5025 6.8758 26.7467 6.77466 27.0013 6.77466H29.0866C31.3999 6.77466 33.2759 8.64933 33.2759 10.9627V12.9853C33.2759 13.24 33.1748 13.4841 32.9947 13.6642C32.8147 13.8442 32.5705 13.9454 32.3159 13.9454Z" fill="#131316"/>
<path d="M6.73608 29.0573V17.3347C6.73608 17.2086 6.76091 17.0838 6.80916 16.9673C6.8574 16.8508 6.92812 16.745 7.01726 16.6558C7.10641 16.5667 7.21224 16.496 7.32871 16.4477C7.44518 16.3995 7.57001 16.3747 7.69608 16.3747H12.9814C13.236 16.3747 13.4802 16.4758 13.6602 16.6558C13.8403 16.8359 13.9414 17.0801 13.9414 17.3347V32.2867C13.9414 32.5413 13.8403 32.7855 13.6602 32.9655C13.4802 33.1455 13.236 33.2467 12.9814 33.2467H10.9254C8.61208 33.2467 6.73608 31.3707 6.73608 29.0573Z" fill="#131316"/>
<path d="M16.3867 29.0573V17.3347C16.3867 17.0801 16.4879 16.8359 16.6679 16.6558C16.8479 16.4758 17.0921 16.3747 17.3467 16.3747H22.6321C22.8867 16.3747 23.1308 16.4758 23.3109 16.6558C23.4909 16.8359 23.5921 17.0801 23.5921 17.3347V32.2867C23.5921 32.5413 23.4909 32.7855 23.3109 32.9655C23.1308 33.1455 22.8867 33.2467 22.6321 33.2467H20.5761C18.2627 33.2467 16.3867 31.3707 16.3867 29.0573Z" fill="#131316"/>
<path d="M26.0374 29.0573V17.3347C26.0374 17.0801 26.1385 16.8359 26.3185 16.6558C26.4986 16.4758 26.7427 16.3747 26.9973 16.3747H32.2826C32.5372 16.3747 32.7814 16.4758 32.9614 16.6558C33.1414 16.8359 33.2426 17.0801 33.2426 17.3347V32.2867C33.2426 32.5413 33.1414 32.7855 32.9614 32.9655C32.7814 33.1455 32.5372 33.2467 32.2826 33.2467H30.2266C27.9133 33.2467 26.0374 31.3707 26.0374 29.0573Z" fill="#131316"/>
<path d="M19.4908 6.76399L7.68679 6.75333C7.43241 6.75333 7.18843 6.85429 7.00844 7.03403C6.82844 7.21378 6.72714 7.45762 6.72679 7.71199L6.72412 9.81999C6.72279 12.0853 8.55745 13.9253 10.8241 13.9267L22.6281 13.9387C22.8828 13.9387 23.1271 13.8376 23.3074 13.6576C23.4876 13.4776 23.5891 13.2334 23.5894 12.9787V10.872C23.5934 8.60533 21.7574 6.76666 19.4908 6.76399Z" fill="#131316"/>
</svg>
